# xmcd
#
# Track frame offsets:
#	150
#	16635
#	31722
#	49560
#	64410
#	80820
#	96000
#	113947
#	132365
#	161285
#	179885
#	198145
#	210977
#	236262
#	252637
#	274797
#	297870
#
# Disc length: 4335 seconds
#
# Revision: 0
# Processed by: cddbd v1.4PL0 Copyright (c) Steve Scherf et al.
# Submitted via: EasyCDDAExtractor 5.0.4.1
#
DISCID=e810ed11
DTITLE=Blues Etílicos - Coletânea
DYEAR=1900
DGENRE=Blues
TTITLE0=How Many More Times
TTITLE1=Louco da Cidade
TTITLE2=Hard Times
TTITLE3=3o. Whisky
TTITLE4=Pelicano
TTITLE5=Shame, Shame, Shame
TTITLE6=Na Beira da Madrugada
TTITLE7=Fuss and Fight
TTITLE8=Country Girl
TTITLE9=Funky Blues
TTITLE10=Driftin' Blues
TTITLE11=Frank Zappa vai pra Martinica
TTITLE12=It's not
TTITLE13=Crossroads
TTITLE14=Mona's Blues
TTITLE15=Vou Pega ma Beibe
TTITLE16=Maracujina
EXTD=
EXTT0=
EXTT1=
EXTT2=
EXTT3=
EXTT4=
EXTT5=
EXTT6=
EXTT7=
EXTT8=
EXTT9=
EXTT10=
EXTT11=
EXTT12=
EXTT13=
EXTT14=
EXTT15=
EXTT16=
PLAYORDER=
